# xmcd CD database file
#
# Track frame offsets:
#	150
#	17348
#	30350
#	44220
#	58335
#	71831
#	89839
#	103021
#	127125
#	136416
#
# Disc length: 2059 seconds
#
# Revision: 0
# Processed by: cddbd v1.5.2PL0 Copyright (c) Steve Scherf et al.
# Submitted via: CDex 1.51
#
DISCID=9708090a
DTITLE=Elsa Cross - Unavailable
DYEAR=2008
DGENRE=Country
TTITLE0=Zombie For His Love
TTITLE1=Because of You
TTITLE2=Dead of Night
TTITLE3=Before I Find a Man
TTITLE4=The Burden
TTITLE5=Unavailable
TTITLE6=Demons
TTITLE7=Thunderstorms and Neon Signs
TTITLE8=One More Time
TTITLE9=Stolen
EXTD=YEAR: 2008
EXTT0=
EXTT1=
EXTT2=
EXTT3=
EXTT4=
EXTT5=
EXTT6=
EXTT7=
EXTT8=
EXTT9=
PLAYORDER=
